<?xml version="1.0" encoding="UTF-8" standalone="no"?>
<!-- Created with Inkscape (http://www.inkscape.org/) -->

<svg
   width="48"
   height="48"
   viewBox="0 0 12.7 12.7"
   version="1.1"
   id="svg1"
   xml:space="preserve"
   inkscape:version="1.4.3 (0d15f75042, 2025-12-25)"
   sodipodi:docname="sngl.svg"
   inkscape:export-filename="sngl.png"
   inkscape:export-xdpi="512"
   inkscape:export-ydpi="512"
   xmlns:inkscape="http://www.inkscape.org/namespaces/inkscape"
   xmlns:sodipodi="http://sodipodi.sourceforge.net/DTD/sodipodi-0.dtd"
   xmlns:xlink="http://www.w3.org/1999/xlink"
   xmlns="http://www.w3.org/2000/svg"
   xmlns:svg="http://www.w3.org/2000/svg"><sodipodi:namedview
     id="namedview1"
     pagecolor="#505050"
     bordercolor="#eeeeee"
     borderopacity="1"
     inkscape:showpageshadow="false"
     inkscape:pageopacity="0"
     inkscape:pagecheckerboard="true"
     inkscape:deskcolor="#000000"
     inkscape:document-units="px"
     labelstyle="default"
     inkscape:clip-to-page="false"
     inkscape:zoom="17.401828"
     inkscape:cx="19.969166"
     inkscape:cy="32.352923"
     inkscape:window-width="1920"
     inkscape:window-height="1255"
     inkscape:window-x="0"
     inkscape:window-y="0"
     inkscape:window-maximized="0"
     inkscape:current-layer="layer2"
     showgrid="false" /><defs
     id="defs1"><linearGradient
       id="linearGradient9"
       inkscape:collect="always"><stop
         style="stop-color:#4f84ad;stop-opacity:1;"
         offset="0"
         id="stop9" /><stop
         style="stop-color:#72a4c9;stop-opacity:1;"
         offset="1"
         id="stop10" /></linearGradient><linearGradient
       inkscape:collect="always"
       xlink:href="#linearGradient9"
       id="linearGradient10"
       x1="6.2789969"
       y1="9.6711187"
       x2="6.6985512"
       y2="9.0340176"
       gradientUnits="userSpaceOnUse" /></defs><g
     inkscape:groupmode="layer"
     id="layer2"
     inkscape:label="Drawing"
     style="display:inline;opacity:1;fill:#578bb3;fill-opacity:1"><path
       style="display:inline;opacity:1;fill:#a3cce2;fill-opacity:1;stroke-width:13.2;stroke-linejoin:round;stroke-opacity:0.866667"
       d="M 0.50770819,7.5562007 C -0.04202378,4.4566481 1.9245252,4.1329616 2.9124098,3.6258917 3.3042762,3.4247512 3.9416951,1.8246423 5.7429446,1.625803 7.5441939,1.4269638 8.6436578,2.3158921 9.2752648,3.111249 9.9068718,3.9066058 0.50770819,7.5562007 0.50770819,7.5562007 Z"
       id="path1"
       sodipodi:nodetypes="csssc"
       inkscape:label="light-blue-top" /><path
       style="display:inline;opacity:1;fill:#72a4c9;fill-opacity:1;stroke-width:13.2;stroke-linejoin:round;stroke-opacity:0.866667"
       d="M 4.0850681,9.9736969 C 3.28276,9.4048174 2.7014731,9.6687769 1.6024102,8.9360684 -0.46785704,7.5558904 0.42795298,5.0777964 2.7135704,5.2166053 3.0894153,5.2394309 3.7006921,5.3625183 4.1685564,5.292572 4.7563198,5.2047006 4.9859795,4.9538978 5.2984804,4.7604448 5.7897301,4.4563378 6.4096407,4.2458022 7.3570512,4.737053 8.3044614,5.2283028 8.8263043,5.6439453 10.17589,4.3744638 c 0.818634,-0.7700441 0.972165,0.6763029 1.497142,1.0526784 0.432768,0.3102672 0.61768,0.9773663 0.619682,1.2863782 -0.04679,0.2105356 -3.2045919,3.0062095 -3.2045919,3.0062095 0,0 -0.6821027,0.5866541 -1.4461123,0.9886911 -0.4418347,0.232502 -0.9412077,0.373115 -1.2739276,0.380772 -0.9080507,0.0209 -1.9053315,-0.847699 -2.2830141,-1.1154961 z"
       id="path2"
       sodipodi:nodetypes="ssssssssccsss"
       inkscape:label="med-blue-back" /><path
       style="display:inline;opacity:1;fill:#f9f1de;fill-opacity:1;stroke-width:13.2;stroke-linejoin:round;stroke-opacity:0.866667"
       d="M 6.1661586,5.0100123 C 6.3524044,4.9965583 6.1769852,4.6516886 6.3388369,4.4448647 6.9296559,3.6898804 7.5838332,3.148672 8.3491119,3.037583 9.4012356,2.8848552 10.49905,3.3007206 10.979422,3.4871433 c 0.828035,0.3213443 0.950823,1.5317799 0.543031,2.0449916 0,0 -0.206407,0.4716366 -0.822302,0.6547228 C 10.43039,6.2670492 9.9605843,6.4602917 9.7435274,6.5636816 8.849076,6.9897321 8.4251408,7.4093768 8.0038959,7.7255615 7.7221636,7.9370285 7.4572682,8.1270387 6.9956607,8.1476048 6.5947018,8.1654689 6.1455954,7.9576886 5.7834916,7.7758401 5.3729287,7.5696554 4.9399692,7.3740565 4.4804126,7.1508027 3.6219347,6.7337518 2.9392752,6.0744652 2.3190847,6.0649213 c 0.1865744,-0.068333 0.6991172,0.00433 1.2047533,0.024586 0.3147976,0.01261 0.6341316,0.0012 0.8510197,-0.054739 0.7352878,-0.1896551 1.1528941,-0.9786388 1.7913009,-1.024756 z"
       id="path3"
       sodipodi:nodetypes="sssscsssssscsss"
       inkscape:label="cream-inside" /><path
       style="display:inline;opacity:1;fill:#fbac4e;fill-opacity:1;stroke-width:13.2;stroke-linejoin:round;stroke-opacity:0.866667"
       d="m 3.144757,6.3561652 c 0,0 1.6406388,0.6305128 2.8152362,0.4564984 C 6.4670156,6.7375492 8.6657662,6.1952197 9.4837274,5.7802882 9.8440893,5.5974855 9.5402207,5.36194 9.6495059,5.2154653 9.8668296,4.924187 10.223346,4.7940967 10.223346,4.7940967 c 0,0 0.85267,-1.0092836 1.191998,-0.5133425 0.339329,0.4959411 -0.0174,0.2175179 -0.0174,0.2175179 0,0 0.24362,0.5829483 -0.417635,0.8526706 C 10.319053,5.6206651 9.901419,5.4988549 9.4228793,5.7076722 8.9443398,5.9164896 9.8840176,5.2813369 9.710003,5.5423585 9.5359887,5.8033802 8.3352893,7.0040795 7.1693928,7.2041961 6.0034965,7.4043126 4.2671494,7.2523381 3.144757,6.3561652 Z"
       id="path5"
       inkscape:label="orange-sheet"
       sodipodi:nodetypes="cssscscssssc" /><path
       style="display:inline;opacity:1;fill:#f5ddb7;fill-opacity:1;stroke-width:13.2;stroke-linejoin:round;stroke-opacity:0.866667"
       d="m 3.1434308,6.3567885 c 0,0 1.6912802,0.7283909 3.5474228,0.3688679 1.9315599,-0.3741309 2.82902,-0.960694 2.82902,-0.960694 0,0 -1.2786231,0.6128664 -2.4548891,0.2037309 C 5.8642852,5.5510593 6.2052118,6.0672683 5.0464176,6.3428247 4.0612358,6.577097 3.1434308,6.3567929 3.1434308,6.3567929 Z"
       id="path4"
       sodipodi:nodetypes="cscsscc"
       inkscape:label="tan-inside" /><path
       style="opacity:1;fill:#a3cce2;fill-opacity:1;stroke-width:13.2;stroke-linejoin:round;stroke-opacity:0.866667"
       d="M 5.9611661,5.0499758 C 6.6117195,4.8467433 7.2976347,5.2995184 7.8413302,5.6648981 8.3309975,5.9939692 9.3540278,6.0044832 9.6936131,5.6340268 10.033198,5.2635702 10.727804,4.3374287 11.098261,4.3991716 c 0.370456,0.061743 0.509378,0.3858922 0.463071,0.8026557 -0.04631,0.4167637 -0.263517,0.6368547 -0.263517,0.6368547 0,0 0.587666,-0.5905476 0.541359,-1.0844895 C 11.792867,4.2602503 11.593095,3.9024321 10.976093,3.9682894 10.225312,4.0484257 9.5393612,5.1522059 8.905399,5.2369737 8.212757,5.3295877 7.7919811,4.9310437 6.9614959,4.568964 6.6829263,4.4475116 6.3355129,4.438404 6.3171634,4.468196 6.1698079,4.70744 5.9611661,5.0499758 5.9611661,5.0499758 Z"
       id="path6"
       sodipodi:nodetypes="csssccsssssc"
       inkscape:label="blue-highlight" /><path
       style="opacity:1;fill:url(#linearGradient10);fill-opacity:1;stroke-width:13.2;stroke-linejoin:round;stroke-opacity:0.866667"
       d="M 6.1228498,10.023537 C 5.805398,10.202104 5.1625583,9.5830734 4.7379666,9.3251438 4.3133749,9.0672142 3.1665808,8.5672279 2.3650152,8.3370753 1.5634496,8.106923 1.1586987,7.1307589 1.4047238,6.6744219 1.6507488,6.2180853 2.2181938,5.9284104 2.6626262,6.103009 3.1070585,6.2776075 4.4959097,7.1982173 4.8768517,7.3450388 5.2577938,7.4918601 6.4641102,8.221999 6.9601285,8.162477 7.4561469,8.1029547 7.8053437,8.8727751 7.8053437,8.8727751 L 6.7736256,9.5354555 2.1460684,6.7903803 2.0029972,7.1975831 6.185079,9.4206898 c 0,0 0.099534,0.4062021 -0.062229,0.6028472 z"
       id="path7"
       inkscape:label="dark-blue-side" /><path
       style="opacity:1;fill:#a2cce2;fill-opacity:1;stroke-width:13.2;stroke-linejoin:round;stroke-opacity:0.866667"
       d="m 5.6214588,10.928384 c 0,0 0.7119165,0.354702 1.1845216,-0.05354 C 7.16736,10.520159 7.4082795,9.5564801 6.6788286,8.9207197 5.9493773,8.2849595 4.497167,7.8767347 3.6874094,7.2945121 2.8776515,6.7122896 2.0545093,6.3509101 1.8068975,6.7792118 1.5592856,7.2075132 1.9340495,7.8031202 2.8040373,8.0975776 3.6740249,8.3920351 5.4474614,9.0144108 5.6749965,9.1750239 5.9025318,9.3356369 6.7904908,9.8657699 6.29068,10.714233 6.1239877,10.997205 5.6214588,10.928384 5.6214588,10.928384 Z"
       id="path8"
       inkscape:label="light-blue-side"
       sodipodi:nodetypes="ccssssssc" /><path
       style="opacity:1;fill:#faab4e;fill-opacity:1;stroke-width:13.2;stroke-linejoin:round;stroke-opacity:0.866667"
       d="m 8.9034396,9.8675007 c 0,0 1.3846674,-0.472837 1.7689684,-0.6757262 0.964941,-0.5094347 1.59777,-1.1785143 1.623414,-1.939491 0.01733,-0.5141716 -0.0047,-0.5656701 -0.0047,-0.5656701 0,0 -0.869352,0.269708 -1.766556,1.0721079 C 9.6273612,8.5611211 9.031009,9.7403648 8.9034396,9.8675007 Z"
       id="path9"
       inkscape:label="orange-bottom"
       sodipodi:nodetypes="cssczc" /></g></svg>
